<svg width="30" height="30" xmlns="http://www.w3.org/2000/svg" fill="none">

 <g>
  <title>Layer 1</title>
  <path id="svg_1" fill="#00B3FF" d="m17.61878,20.85353c3.2535,0 5.891,-2.6947 5.891,-6.0189c0,-3.32422 -2.6375,-6.01901 -5.891,-6.01901c-3.2535,0 -5.891,2.69479 -5.891,6.01901c0,3.3242 2.6375,6.0189 5.891,6.0189z"/>
  <path id="svg_2" fill="#00B3FF" d="m8.68091,6.34037c4.67217,-4.68912 12.24847,-4.68912 16.92057,0c4.6797,4.68911 4.6797,12.29166 0,16.97306c-4.6721,4.6814 -12.2484,4.6814 -16.92057,-0.0077l-7.63647,-7.664c-0.45141,-0.4535 -0.45141,-1.1838 0,-1.6374l7.63647,-7.66396zm2.68597,14.72076c3.4307,3.4438 8.9982,3.4438 12.429,0c3.4307,-3.4438 3.4307,-9.02464 -0.0076,-12.46845c-3.4307,-3.44381 -8.9982,-3.44381 -12.429,0l-5.61258,5.62695c-0.33104,0.3382 -0.33104,0.8763 0,1.2069l5.62018,5.6346z" clip-rule="evenodd" fill-rule="evenodd"/>
  <path id="svg_3" fill="#00B3FF" d="m31.5385,7.75236l3.363,3.43614c0.4439,0.4535 0.4439,1.1838 0,1.645l-3.363,3.4361c-0.1957,0.1999 -0.5342,0.0154 -0.474,-0.269c0.5793,-2.6213 0.5793,-5.3579 0,-7.97919c-0.0677,-0.28442 0.2708,-0.4766 0.474,-0.26905z"/>
 </g>
</svg>